<?xml version="1.0" encoding="UTF-8"?>
<svg id="uuid-e8aba30d-3fe6-42b0-b5c3-010a8ef69798" data-name="Ebene 2" xmlns="http://www.w3.org/2000/svg" viewBox="0 0 199.3443 201.269">
  <defs>
    <style>
      .uuid-63d09978-7468-4989-baf6-c27800545bf7 {
        fill: #ebb22c;
      }

      .uuid-ae80364f-7292-441c-957b-b76f7146f726 {
        fill: #fff;
      }

      .uuid-d7fe2e34-3e56-47c0-b0a3-94bd60712855 {
        fill: #e01e5b;
      }

      .uuid-e290cc3c-f219-4334-b02b-ad02ca3f1f7f {
        fill: #41bfeb;
      }

      .uuid-ee2b212c-532d-4ab4-836f-fa6a99002325 {
        fill: #39b07c;
      }

      .uuid-9bd26863-3875-4d92-9a7f-948640d64b5f {
        fill: #467abe;
      }
    </style>
  </defs>
  <g id="uuid-d9f3beb4-bd13-413a-986d-2348db146df7" data-name="Ebene 1">
    <g>
      <g>
        <rect class="uuid-ae80364f-7292-441c-957b-b76f7146f726" width="199.3443" height="199.3443" rx="9.7655" ry="9.7655"/>
        <g>
          <path id="uuid-15f5d646-15d5-47f2-bcc6-008926b14dc9" data-name="path5" class="uuid-9bd26863-3875-4d92-9a7f-948640d64b5f" d="m25.8509,165.8521c7.7821,5.1007,17.179,6.276,29.7609,4.2865,13.0725-2.0676,26.9142,3.6761,38.9993,11.4963,9.2934,6.0083,13.7527,12.6735,17.2934,18.133.6322.9747.178,1.1312-.5124,1.235-.6934.1023-1.067.2775-1.9008.2655-.8404-.0079-.9508-.6121-1.4457-1.4847-5.4572-9.4793-10.5609-16.7514-19.6179-20.3662-3.6094-1.4395-9.6994-2.5419-15.4989-1.2807-13.0145,2.8385-33.443,3.1942-47.2942-11.9105-.7583-.8246-.0953-.5818.2164-.3743h0Z"/>
          <path id="uuid-6b2a5c5f-40af-41e6-8f8b-61f40d38c3ff" data-name="path15" class="uuid-9bd26863-3875-4d92-9a7f-948640d64b5f" d="m15.108,138.7606c-.3596-.9856-.2695-1.0843.4413-.2936,4.926,5.509,7.8982,8.5112,14.168,11.8744,6.2698,3.36,12.5909,7.4674,15.3707,9.5902,2.7832,2.121,5.7508,4.0251,8.0827,5.2202.618.3148.8385-.0944.1097-.5735-9.7574-6.432-11.1076-17.0249-11.6094-24.2002-.4953-7.1751-.0738-10.3611-.1794-12.0351-.1082-1.6744.2287-1.2145.7618.0501,4.128,9.766,6.4348,10.3409,9.6477,21.1066,2.65,8.8936,2.4583,14.8582,6.7614,18.1092.8029.6057.6226.9298-.4475.7158-4.7364-.9535-7.7303-1.3587-11.7113-1.1859-13.7652-.1728-23.4421-6.5937-31.3958-28.378h0Z"/>
          <path id="uuid-fa06cbab-2630-4723-88b2-efb65e7ceb20" data-name="path17" class="uuid-9bd26863-3875-4d92-9a7f-948640d64b5f" d="m40.7555,152.1741c-4.7086-8.5608-5.2406-13.7978-12.5657-24.9498-2.816-4.2864-6.1636-8.1202-8.1435-12.32-.4335-.9183-1.0995-.6832-.881.6468,2.1347,13.3551,6.156,28.813,20.7307,37.0094.9935.5564,1.3003.405.8596-.3864Z"/>
        </g>
      </g>
      <g>
        <path class="uuid-d7fe2e34-3e56-47c0-b0a3-94bd60712855" d="m75.6754,96.9123c0,7.39-6.0376,13.4276-13.4276,13.4276s-13.4276-6.0376-13.4276-13.4276,6.0376-13.4276,13.4276-13.4276h13.4276v13.4276Z"/>
        <path class="uuid-d7fe2e34-3e56-47c0-b0a3-94bd60712855" d="m82.4434,96.9123c0-7.39,6.0376-13.4276,13.4276-13.4276s13.4276,6.0376,13.4276,13.4276v33.6232c0,7.39-6.0376,13.4276-13.4276,13.4276s-13.4276-6.0376-13.4276-13.4276c0,0,0-33.6232,0-33.6232Z"/>
        <path class="uuid-e290cc3c-f219-4334-b02b-ad02ca3f1f7f" d="m95.8711,42.9907c-7.39,0-13.4276-6.0376-13.4276-13.4276s6.0376-13.4276,13.4276-13.4276,13.4276,6.0376,13.4276,13.4276v13.4276h-13.4276,0Z"/>
        <path class="uuid-e290cc3c-f219-4334-b02b-ad02ca3f1f7f" d="m95.8711,49.7587c7.39,0,13.4276,6.0376,13.4276,13.4276s-6.0376,13.4276-13.4276,13.4276h-33.6232c-7.39,0-13.4276-6.0376-13.4276-13.4276s6.0376-13.4276,13.4276-13.4276h33.6232Z"/>
        <path class="uuid-ee2b212c-532d-4ab4-836f-fa6a99002325" d="m149.7926,63.1863c0-7.39,6.0376-13.4276,13.4276-13.4276s13.4276,6.0376,13.4276,13.4276-6.0376,13.4276-13.4276,13.4276h-13.4276v-13.4276h0Z"/>
        <path class="uuid-ee2b212c-532d-4ab4-836f-fa6a99002325" d="m143.0246,63.1863c0,7.39-6.0376,13.4276-13.4276,13.4276s-13.4276-6.0376-13.4276-13.4276V29.5631c0-7.39,6.0376-13.4276,13.4276-13.4276s13.4276,6.0376,13.4276,13.4276v33.6232h0Z"/>
        <path class="uuid-63d09978-7468-4989-baf6-c27800545bf7" d="m129.597,117.1079c7.39,0,13.4276,6.0376,13.4276,13.4276s-6.0376,13.4276-13.4276,13.4276-13.4276-6.0376-13.4276-13.4276v-13.4276h13.4276Z"/>
        <path class="uuid-63d09978-7468-4989-baf6-c27800545bf7" d="m129.597,110.3399c-7.39,0-13.4276-6.0376-13.4276-13.4276s6.0376-13.4276,13.4276-13.4276h33.6232c7.39,0,13.4276,6.0376,13.4276,13.4276s-6.0376,13.4276-13.4276,13.4276h-33.6232Z"/>
      </g>
    </g>
  </g>
</svg>