<?xml version="1.0" standalone="no"?>
<!DOCTYPE svg PUBLIC "-//W3C//DTD SVG 20010904//EN"
 "http://www.w3.org/TR/2001/REC-SVG-20010904/DTD/svg10.dtd">
<svg version="1.0" xmlns="http://www.w3.org/2000/svg"
 width="453.000000pt" height="453.000000pt" viewBox="0 0 453.000000 453.000000"
 preserveAspectRatio="xMidYMid meet">
<metadata>
Created by potrace 1.14, written by Peter Selinger 2001-2017
</metadata>
<g transform="translate(0.000000,453.000000) scale(0.100000,-0.100000)"
fill="#000000" stroke="none">
<path d="M157 4508 c-53 -24 -83 -52 -110 -103 l-22 -40 -1 -2068 -1 -2068 23
-47 c29 -60 40 -72 89 -102 l40 -25 1137 -3 c1111 -2 1137 -3 1143 -22 7 -23
31 -29 67 -17 17 5 25 14 21 23 -4 12 120 14 888 14 l894 0 51 24 c53 24 94
68 114 121 18 45 17 4123 0 4182 -14 47 -62 103 -112 130 -31 17 -131 18
-2106 19 -2013 1 -2074 0 -2115 -18z"/>
</g>
</svg>
